<mxfile host="app.diagrams.net" agent="Mozilla/5.0 (X11; Linux x86_64) AppleWebKit/537.36 (KHTML, like Gecko) Chrome/130.0.0.0 Safari/537.36" version="27.1.4" pages="2">
  <diagram id="IuXAi1eevMyLSQoJfHt3" name="Architecture overview">
    <mxGraphModel dx="2098" dy="2730" grid="1" gridSize="10" guides="1" tooltips="1" connect="1" arrows="1" fold="1" page="1" pageScale="1" pageWidth="850" pageHeight="1100" math="0" shadow="0">
      <root>
        <mxCell id="0" />
        <mxCell id="1" parent="0" />
        <mxCell id="4DN_kyw4FJrjEmb9qZSz-7" value="Not implemented" style="ellipse;shape=cloud;whiteSpace=wrap;html=1;" parent="1" vertex="1">
          <mxGeometry x="200" y="-100" width="120" height="80" as="geometry" />
        </mxCell>
        <mxCell id="hdkTb5bz-x_7p9uWzcBC-1" value="Sip transp create generic interface for every low level network protocol&lt;span style=&quot;background-color: transparent; color: light-dark(rgb(0, 0, 0), rgb(255, 255, 255));&quot;&gt;.&lt;/span&gt;" style="ellipse;shape=cloud;whiteSpace=wrap;html=1;" parent="1" vertex="1">
          <mxGeometry x="-95" y="30" width="170" height="100" as="geometry" />
        </mxCell>
        <mxCell id="4DN_kyw4FJrjEmb9qZSz-20" value="Sip register implements&amp;nbsp;&lt;div&gt;high level SIP functions&lt;/div&gt;&lt;div&gt;&amp;nbsp; &amp;nbsp;related to SIP regiostration.&lt;/div&gt;" style="ellipse;shape=cloud;whiteSpace=wrap;html=1;" parent="1" vertex="1">
          <mxGeometry x="210" y="320" width="170" height="100" as="geometry" />
        </mxCell>
        <mxCell id="4DN_kyw4FJrjEmb9qZSz-15" value="Sip session implements&amp;nbsp;&lt;div&gt;high level SIP functions&lt;/div&gt;&lt;div&gt;&amp;nbsp;related to invite.&lt;/div&gt;" style="ellipse;shape=cloud;whiteSpace=wrap;html=1;" parent="1" vertex="1">
          <mxGeometry x="-70" y="320" width="170" height="100" as="geometry" />
        </mxCell>
        <mxCell id="4DN_kyw4FJrjEmb9qZSz-13" value="&lt;div&gt;&lt;br&gt;&lt;/div&gt;&lt;div&gt;&lt;br&gt;&lt;/div&gt;Sip core implements&amp;nbsp;&lt;div&gt;low level SIP functions&lt;/div&gt;&lt;div&gt;&amp;nbsp;like:&amp;nbsp;&lt;/div&gt;&lt;div&gt;- sip_listen&lt;/div&gt;&lt;div&gt;-&amp;nbsp; sip_sonnect&lt;/div&gt;&lt;div&gt;- sip_reply&lt;/div&gt;&lt;div&gt;- ...&lt;/div&gt;" style="ellipse;shape=cloud;whiteSpace=wrap;html=1;" parent="1" vertex="1">
          <mxGeometry x="-70" y="170" width="160" height="150" as="geometry" />
        </mxCell>
        <mxCell id="4DN_kyw4FJrjEmb9qZSz-11" value="TCP" style="shape=folder;fontStyle=1;spacingTop=10;tabWidth=40;tabHeight=14;tabPosition=left;html=1;whiteSpace=wrap;" parent="1" vertex="1">
          <mxGeometry x="280" y="-50" width="70" height="50" as="geometry" />
        </mxCell>
        <mxCell id="YKyc-Dx4LvSBVfcNzGyH-1" value="&lt;h1 style=&quot;margin-top: 0px;&quot;&gt;Architecture Overview&lt;/h1&gt;" style="text;html=1;whiteSpace=wrap;overflow=hidden;rounded=0;" parent="1" vertex="1">
          <mxGeometry x="-200" y="-210" width="260" height="120" as="geometry" />
        </mxCell>
        <mxCell id="4DN_kyw4FJrjEmb9qZSz-1" value="UDP" style="shape=folder;fontStyle=1;spacingTop=10;tabWidth=40;tabHeight=14;tabPosition=left;html=1;whiteSpace=wrap;" parent="1" vertex="1">
          <mxGeometry x="55" y="-50" width="70" height="50" as="geometry" />
        </mxCell>
        <mxCell id="4DN_kyw4FJrjEmb9qZSz-2" value="SIP core" style="shape=folder;fontStyle=1;spacingTop=10;tabWidth=40;tabHeight=14;tabPosition=left;html=1;whiteSpace=wrap;" parent="1" vertex="1">
          <mxGeometry x="60" y="250" width="70" height="50" as="geometry" />
        </mxCell>
        <mxCell id="4DN_kyw4FJrjEmb9qZSz-3" value="SIP transp" style="shape=folder;fontStyle=1;spacingTop=10;tabWidth=40;tabHeight=14;tabPosition=left;html=1;whiteSpace=wrap;" parent="1" vertex="1">
          <mxGeometry x="60" y="80" width="80" height="50" as="geometry" />
        </mxCell>
        <mxCell id="4DN_kyw4FJrjEmb9qZSz-6" value="DTLS" style="shape=folder;fontStyle=1;spacingTop=10;tabWidth=40;tabHeight=14;tabPosition=left;html=1;whiteSpace=wrap;" parent="1" vertex="1">
          <mxGeometry x="170" y="-50" width="70" height="50" as="geometry" />
        </mxCell>
        <mxCell id="4DN_kyw4FJrjEmb9qZSz-14" value="SIP&amp;nbsp;&lt;div&gt;session&lt;/div&gt;" style="shape=folder;fontStyle=1;spacingTop=10;tabWidth=40;tabHeight=14;tabPosition=left;html=1;whiteSpace=wrap;" parent="1" vertex="1">
          <mxGeometry x="60" y="380" width="70" height="50" as="geometry" />
        </mxCell>
        <mxCell id="4DN_kyw4FJrjEmb9qZSz-16" value="SIP&amp;nbsp;&lt;div&gt;register&lt;/div&gt;" style="shape=folder;fontStyle=1;spacingTop=10;tabWidth=40;tabHeight=14;tabPosition=left;html=1;whiteSpace=wrap;" parent="1" vertex="1">
          <mxGeometry x="180" y="380" width="70" height="50" as="geometry" />
        </mxCell>
        <mxCell id="AoV7cnLH2HYfHU9RmJqG-2" value="Event loop" style="shape=folder;fontStyle=1;spacingTop=10;tabWidth=40;tabHeight=14;tabPosition=left;html=1;whiteSpace=wrap;" parent="1" vertex="1">
          <mxGeometry x="-300" y="-55" width="70" height="50" as="geometry" />
        </mxCell>
        <mxCell id="AoV7cnLH2HYfHU9RmJqG-7" value="Only low level&amp;nbsp;&lt;div&gt;network protocols&lt;/div&gt;&lt;div&gt;&amp;nbsp;wich interact with sockets are&lt;/div&gt;&lt;div&gt;&amp;nbsp;using event loop.&lt;/div&gt;" style="ellipse;shape=cloud;whiteSpace=wrap;html=1;" parent="1" vertex="1">
          <mxGeometry x="-55" y="-120" width="130" height="120" as="geometry" />
        </mxCell>
        <mxCell id="kAVRJxKC5ioPL66cNbu8-1" value="main" style="shape=folder;fontStyle=1;spacingTop=10;tabWidth=40;tabHeight=14;tabPosition=left;html=1;whiteSpace=wrap;" parent="1" vertex="1">
          <mxGeometry x="-170" y="490" width="70" height="50" as="geometry" />
        </mxCell>
        <mxCell id="v3j3ujz7cPLlm9doWBM3-2" value="SIP Ua" style="shape=folder;fontStyle=1;spacingTop=10;tabWidth=40;tabHeight=14;tabPosition=left;html=1;whiteSpace=wrap;" vertex="1" parent="1">
          <mxGeometry x="125" y="490" width="70" height="50" as="geometry" />
        </mxCell>
        <mxCell id="v3j3ujz7cPLlm9doWBM3-3" value="" style="endArrow=classic;html=1;rounded=0;entryX=0.444;entryY=1.004;entryDx=0;entryDy=0;entryPerimeter=0;dashed=1;dashPattern=8 8;" edge="1" parent="1" target="4DN_kyw4FJrjEmb9qZSz-16">
          <mxGeometry width="50" height="50" relative="1" as="geometry">
            <mxPoint x="160" y="490" as="sourcePoint" />
            <mxPoint x="210" y="440" as="targetPoint" />
            <Array as="points">
              <mxPoint x="160" y="460" />
              <mxPoint x="211" y="460" />
            </Array>
          </mxGeometry>
        </mxCell>
        <mxCell id="v3j3ujz7cPLlm9doWBM3-4" value="" style="endArrow=classic;html=1;rounded=0;entryX=0.5;entryY=1;entryDx=0;entryDy=0;entryPerimeter=0;dashed=1;dashPattern=8 8;" edge="1" parent="1" target="4DN_kyw4FJrjEmb9qZSz-14">
          <mxGeometry width="50" height="50" relative="1" as="geometry">
            <mxPoint x="160.99999999999955" y="490" as="sourcePoint" />
            <mxPoint x="109.99999999999955" y="430" as="targetPoint" />
            <Array as="points">
              <mxPoint x="160.99999999999955" y="460" />
              <mxPoint x="95" y="460" />
            </Array>
          </mxGeometry>
        </mxCell>
        <mxCell id="v3j3ujz7cPLlm9doWBM3-5" value="" style="endArrow=classic;html=1;rounded=0;entryX=0.568;entryY=1.008;entryDx=0;entryDy=0;entryPerimeter=0;dashed=1;dashPattern=8 8;strokeColor=default;align=center;verticalAlign=middle;fontFamily=Helvetica;fontSize=11;fontColor=default;labelBackgroundColor=default;exitX=0;exitY=0;exitDx=40;exitDy=14;exitPerimeter=0;" edge="1" parent="1" source="4DN_kyw4FJrjEmb9qZSz-14" target="4DN_kyw4FJrjEmb9qZSz-2">
          <mxGeometry width="50" height="50" relative="1" as="geometry">
            <mxPoint x="100" y="390" as="sourcePoint" />
            <mxPoint x="150" y="340" as="targetPoint" />
          </mxGeometry>
        </mxCell>
        <mxCell id="v3j3ujz7cPLlm9doWBM3-6" value="" style="endArrow=none;html=1;rounded=0;dashed=1;dashPattern=8 8;strokeColor=default;align=center;verticalAlign=middle;fontFamily=Helvetica;fontSize=11;fontColor=default;labelBackgroundColor=default;startFill=0;" edge="1" parent="1">
          <mxGeometry width="50" height="50" relative="1" as="geometry">
            <mxPoint x="200" y="380" as="sourcePoint" />
            <mxPoint x="100" y="360" as="targetPoint" />
            <Array as="points">
              <mxPoint x="200" y="360" />
              <mxPoint x="100" y="360" />
            </Array>
          </mxGeometry>
        </mxCell>
        <mxCell id="v3j3ujz7cPLlm9doWBM3-7" value="" style="endArrow=classic;html=1;rounded=0;entryX=0;entryY=0;entryDx=70;entryDy=32;entryPerimeter=0;dashed=1;dashPattern=8 8;strokeColor=default;align=center;verticalAlign=middle;fontFamily=Helvetica;fontSize=11;fontColor=default;labelBackgroundColor=default;" edge="1" parent="1" target="AoV7cnLH2HYfHU9RmJqG-2">
          <mxGeometry width="50" height="50" relative="1" as="geometry">
            <mxPoint x="-140" y="490" as="sourcePoint" />
            <mxPoint x="-90" y="440" as="targetPoint" />
            <Array as="points">
              <mxPoint x="-140" y="-23" />
            </Array>
          </mxGeometry>
        </mxCell>
        <mxCell id="v3j3ujz7cPLlm9doWBM3-8" value="" style="endArrow=classic;html=1;rounded=0;dashed=1;dashPattern=8 8;strokeColor=default;align=center;verticalAlign=middle;fontFamily=Helvetica;fontSize=11;fontColor=default;labelBackgroundColor=default;exitX=0;exitY=0;exitDx=40;exitDy=14;exitPerimeter=0;" edge="1" parent="1">
          <mxGeometry width="50" height="50" relative="1" as="geometry">
            <mxPoint x="100" y="250" as="sourcePoint" />
            <mxPoint x="100" y="130" as="targetPoint" />
          </mxGeometry>
        </mxCell>
        <mxCell id="v3j3ujz7cPLlm9doWBM3-10" value="" style="endArrow=classic;html=1;rounded=0;entryX=0.568;entryY=1.008;entryDx=0;entryDy=0;entryPerimeter=0;dashed=1;dashPattern=8 8;strokeColor=default;align=center;verticalAlign=middle;fontFamily=Helvetica;fontSize=11;fontColor=default;labelBackgroundColor=default;exitX=0;exitY=0;exitDx=40;exitDy=14;exitPerimeter=0;" edge="1" parent="1">
          <mxGeometry width="50" height="50" relative="1" as="geometry">
            <mxPoint x="99.76" y="94" as="sourcePoint" />
            <mxPoint x="99.76" as="targetPoint" />
          </mxGeometry>
        </mxCell>
        <mxCell id="v3j3ujz7cPLlm9doWBM3-11" value="" style="endArrow=classic;html=1;rounded=0;entryX=0.5;entryY=1;entryDx=0;entryDy=0;entryPerimeter=0;dashed=1;dashPattern=8 8;strokeColor=default;align=center;verticalAlign=middle;fontFamily=Helvetica;fontSize=11;fontColor=default;labelBackgroundColor=default;" edge="1" parent="1" target="4DN_kyw4FJrjEmb9qZSz-6">
          <mxGeometry width="50" height="50" relative="1" as="geometry">
            <mxPoint x="100" y="50" as="sourcePoint" />
            <mxPoint x="150" as="targetPoint" />
            <Array as="points">
              <mxPoint x="205" y="50" />
            </Array>
          </mxGeometry>
        </mxCell>
        <mxCell id="v3j3ujz7cPLlm9doWBM3-12" value="" style="endArrow=classic;html=1;rounded=0;entryX=0.5;entryY=1;entryDx=0;entryDy=0;entryPerimeter=0;dashed=1;dashPattern=8 8;strokeColor=default;align=center;verticalAlign=middle;fontFamily=Helvetica;fontSize=11;fontColor=default;labelBackgroundColor=default;" edge="1" parent="1">
          <mxGeometry width="50" height="50" relative="1" as="geometry">
            <mxPoint x="210" y="50" as="sourcePoint" />
            <mxPoint x="315" as="targetPoint" />
            <Array as="points">
              <mxPoint x="315" y="50" />
            </Array>
          </mxGeometry>
        </mxCell>
        <mxCell id="v3j3ujz7cPLlm9doWBM3-13" value="" style="endArrow=none;html=1;rounded=0;entryX=0;entryY=0;entryDx=40;entryDy=0;entryPerimeter=0;dashed=1;dashPattern=8 8;strokeColor=default;align=center;verticalAlign=middle;fontFamily=Helvetica;fontSize=11;fontColor=default;labelBackgroundColor=default;startFill=0;" edge="1" parent="1" target="4DN_kyw4FJrjEmb9qZSz-1">
          <mxGeometry width="50" height="50" relative="1" as="geometry">
            <mxPoint x="-140" y="-20" as="sourcePoint" />
            <mxPoint x="-90" y="370" as="targetPoint" />
            <Array as="points">
              <mxPoint x="-140" y="-120" />
              <mxPoint x="95" y="-120" />
            </Array>
          </mxGeometry>
        </mxCell>
        <mxCell id="v3j3ujz7cPLlm9doWBM3-14" value="" style="endArrow=none;html=1;rounded=0;entryX=0;entryY=0;entryDx=40;entryDy=0;entryPerimeter=0;dashed=1;dashPattern=8 8;strokeColor=default;align=center;verticalAlign=middle;fontFamily=Helvetica;fontSize=11;fontColor=default;labelBackgroundColor=default;startFill=0;" edge="1" parent="1" target="4DN_kyw4FJrjEmb9qZSz-6">
          <mxGeometry width="50" height="50" relative="1" as="geometry">
            <mxPoint x="90" y="-120" as="sourcePoint" />
            <mxPoint x="180" y="-60" as="targetPoint" />
            <Array as="points">
              <mxPoint x="210" y="-120" />
            </Array>
          </mxGeometry>
        </mxCell>
        <mxCell id="v3j3ujz7cPLlm9doWBM3-15" value="" style="endArrow=none;html=1;rounded=0;entryX=0;entryY=0;entryDx=40;entryDy=0;entryPerimeter=0;dashed=1;dashPattern=8 8;strokeColor=default;align=center;verticalAlign=middle;fontFamily=Helvetica;fontSize=11;fontColor=default;labelBackgroundColor=default;startFill=0;" edge="1" parent="1">
          <mxGeometry width="50" height="50" relative="1" as="geometry">
            <mxPoint x="200" y="-120" as="sourcePoint" />
            <mxPoint x="320" y="-50" as="targetPoint" />
            <Array as="points">
              <mxPoint x="320" y="-120" />
            </Array>
          </mxGeometry>
        </mxCell>
        <mxCell id="v3j3ujz7cPLlm9doWBM3-16" value="" style="endArrow=classic;html=1;rounded=0;dashed=1;dashPattern=8 8;strokeColor=default;align=center;verticalAlign=middle;fontFamily=Helvetica;fontSize=11;fontColor=default;labelBackgroundColor=default;" edge="1" parent="1">
          <mxGeometry width="50" height="50" relative="1" as="geometry">
            <mxPoint x="-100" y="520" as="sourcePoint" />
            <mxPoint x="125" y="520" as="targetPoint" />
          </mxGeometry>
        </mxCell>
        <mxCell id="v3j3ujz7cPLlm9doWBM3-22" value="udp_sock_t" style="swimlane;fontStyle=1;align=center;verticalAlign=top;childLayout=stackLayout;horizontal=1;startSize=26;horizontalStack=0;resizeParent=1;resizeParentMax=0;resizeLast=0;collapsible=1;marginBottom=0;whiteSpace=wrap;html=1;" vertex="1" parent="1">
          <mxGeometry x="920" y="-140" width="220" height="310" as="geometry" />
        </mxCell>
        <mxCell id="v3j3ujz7cPLlm9doWBM3-23" value="+ evl: Event Loop" style="text;strokeColor=none;fillColor=none;align=left;verticalAlign=top;spacingLeft=4;spacingRight=4;overflow=hidden;rotatable=0;points=[[0,0.5],[1,0.5]];portConstraint=eastwest;whiteSpace=wrap;html=1;" vertex="1" parent="v3j3ujz7cPLlm9doWBM3-22">
          <mxGeometry y="26" width="220" height="26" as="geometry" />
        </mxCell>
        <mxCell id="v3j3ujz7cPLlm9doWBM3-43" value="+ ip_addr: Ip Addr" style="text;strokeColor=none;fillColor=none;align=left;verticalAlign=top;spacingLeft=4;spacingRight=4;overflow=hidden;rotatable=0;points=[[0,0.5],[1,0.5]];portConstraint=eastwest;whiteSpace=wrap;html=1;" vertex="1" parent="v3j3ujz7cPLlm9doWBM3-22">
          <mxGeometry y="52" width="220" height="26" as="geometry" />
        </mxCell>
        <mxCell id="v3j3ujz7cPLlm9doWBM3-42" value="+ fd: int" style="text;strokeColor=none;fillColor=none;align=left;verticalAlign=top;spacingLeft=4;spacingRight=4;overflow=hidden;rotatable=0;points=[[0,0.5],[1,0.5]];portConstraint=eastwest;whiteSpace=wrap;html=1;" vertex="1" parent="v3j3ujz7cPLlm9doWBM3-22">
          <mxGeometry y="78" width="220" height="26" as="geometry" />
        </mxCell>
        <mxCell id="v3j3ujz7cPLlm9doWBM3-46" value="+ recvh: func" style="text;strokeColor=none;fillColor=none;align=left;verticalAlign=top;spacingLeft=4;spacingRight=4;overflow=hidden;rotatable=0;points=[[0,0.5],[1,0.5]];portConstraint=eastwest;whiteSpace=wrap;html=1;" vertex="1" parent="v3j3ujz7cPLlm9doWBM3-22">
          <mxGeometry y="104" width="220" height="26" as="geometry" />
        </mxCell>
        <mxCell id="v3j3ujz7cPLlm9doWBM3-47" value="+ recvh_arg: void*" style="text;strokeColor=none;fillColor=none;align=left;verticalAlign=top;spacingLeft=4;spacingRight=4;overflow=hidden;rotatable=0;points=[[0,0.5],[1,0.5]];portConstraint=eastwest;whiteSpace=wrap;html=1;" vertex="1" parent="v3j3ujz7cPLlm9doWBM3-22">
          <mxGeometry y="130" width="220" height="26" as="geometry" />
        </mxCell>
        <mxCell id="v3j3ujz7cPLlm9doWBM3-24" value="" style="line;strokeWidth=1;fillColor=none;align=left;verticalAlign=middle;spacingTop=-1;spacingLeft=3;spacingRight=3;rotatable=0;labelPosition=right;points=[];portConstraint=eastwest;strokeColor=inherit;" vertex="1" parent="v3j3ujz7cPLlm9doWBM3-22">
          <mxGeometry y="156" width="220" height="8" as="geometry" />
        </mxCell>
        <mxCell id="v3j3ujz7cPLlm9doWBM3-28" value="+ create_udp_socket(EventLoop,&lt;div&gt;&amp;nbsp; &amp;nbsp; &amp;nbsp; &amp;nbsp; &amp;nbsp; &amp;nbsp; &amp;nbsp; &amp;nbsp; &amp;nbsp; &amp;nbsp; &amp;nbsp; &amp;nbsp; &amp;nbsp; &amp;nbsp; &amp;nbsp; &amp;nbsp; &amp;nbsp; &amp;nbsp;IpAddr,&lt;/div&gt;&lt;div&gt;&lt;div&gt;&amp;nbsp; &amp;nbsp; &amp;nbsp; &amp;nbsp; &amp;nbsp; &amp;nbsp; &amp;nbsp; &amp;nbsp; &amp;nbsp; &amp;nbsp; &amp;nbsp; &amp;nbsp; &amp;nbsp; &amp;nbsp; &amp;nbsp; &amp;nbsp; &amp;nbsp; &amp;nbsp;udp_sock_t **);&amp;nbsp;&lt;/div&gt;&lt;/div&gt;" style="text;strokeColor=none;fillColor=none;align=left;verticalAlign=top;spacingLeft=4;spacingRight=4;overflow=hidden;rotatable=0;points=[[0,0.5],[1,0.5]];portConstraint=eastwest;whiteSpace=wrap;html=1;" vertex="1" parent="v3j3ujz7cPLlm9doWBM3-22">
          <mxGeometry y="164" width="220" height="64" as="geometry" />
        </mxCell>
        <mxCell id="v3j3ujz7cPLlm9doWBM3-41" value="+ destroy_udp_socket(&lt;span style=&quot;background-color: transparent; color: light-dark(rgb(0, 0, 0), rgb(255, 255, 255));&quot;&gt;udp_sock_t **);&amp;nbsp;&lt;/span&gt;" style="text;strokeColor=none;fillColor=none;align=left;verticalAlign=top;spacingLeft=4;spacingRight=4;overflow=hidden;rotatable=0;points=[[0,0.5],[1,0.5]];portConstraint=eastwest;whiteSpace=wrap;html=1;" vertex="1" parent="v3j3ujz7cPLlm9doWBM3-22">
          <mxGeometry y="228" width="220" height="36" as="geometry" />
        </mxCell>
        <mxCell id="v3j3ujz7cPLlm9doWBM3-40" value="+ udp_listen(udp_sock_t *, recvh, void * recv_arg)" style="text;strokeColor=none;fillColor=none;align=left;verticalAlign=top;spacingLeft=4;spacingRight=4;overflow=hidden;rotatable=0;points=[[0,0.5],[1,0.5]];portConstraint=eastwest;whiteSpace=wrap;html=1;" vertex="1" parent="v3j3ujz7cPLlm9doWBM3-22">
          <mxGeometry y="264" width="220" height="46" as="geometry" />
        </mxCell>
        <mxCell id="v3j3ujz7cPLlm9doWBM3-29" value="" style="endArrow=classic;html=1;rounded=0;entryX=0;entryY=0;entryDx=70;entryDy=32;entryPerimeter=0;exitX=0;exitY=0;exitDx=0;exitDy=32;exitPerimeter=0;dashed=1;dashPattern=8 8;strokeColor=default;align=center;verticalAlign=middle;fontFamily=Helvetica;fontSize=11;fontColor=default;labelBackgroundColor=default;" edge="1" parent="1" source="4DN_kyw4FJrjEmb9qZSz-6" target="4DN_kyw4FJrjEmb9qZSz-1">
          <mxGeometry width="50" height="50" relative="1" as="geometry">
            <mxPoint x="170" y="-20" as="sourcePoint" />
            <mxPoint x="220" y="-70" as="targetPoint" />
          </mxGeometry>
        </mxCell>
        <mxCell id="v3j3ujz7cPLlm9doWBM3-31" value="" style="shape=curlyBracket;whiteSpace=wrap;html=1;rounded=1;flipH=1;labelPosition=right;verticalLabelPosition=middle;align=left;verticalAlign=middle;" vertex="1" parent="1">
          <mxGeometry x="390" y="-130" width="20" height="200" as="geometry" />
        </mxCell>
        <mxCell id="v3j3ujz7cPLlm9doWBM3-32" value="Network/Socket Layer" style="text;html=1;align=center;verticalAlign=middle;whiteSpace=wrap;rounded=0;" vertex="1" parent="1">
          <mxGeometry x="410" y="-45" width="100" height="30" as="geometry" />
        </mxCell>
        <mxCell id="v3j3ujz7cPLlm9doWBM3-33" value="" style="shape=curlyBracket;whiteSpace=wrap;html=1;rounded=1;flipH=1;labelPosition=right;verticalLabelPosition=middle;align=left;verticalAlign=middle;" vertex="1" parent="1">
          <mxGeometry x="390" y="70" width="20" height="250" as="geometry" />
        </mxCell>
        <mxCell id="v3j3ujz7cPLlm9doWBM3-34" value="Low Level Sip Layer" style="text;html=1;align=center;verticalAlign=middle;whiteSpace=wrap;rounded=0;" vertex="1" parent="1">
          <mxGeometry x="410" y="180" width="100" height="30" as="geometry" />
        </mxCell>
        <mxCell id="v3j3ujz7cPLlm9doWBM3-35" value="" style="shape=curlyBracket;whiteSpace=wrap;html=1;rounded=1;flipH=1;labelPosition=right;verticalLabelPosition=middle;align=left;verticalAlign=middle;" vertex="1" parent="1">
          <mxGeometry x="390" y="320" width="20" height="150" as="geometry" />
        </mxCell>
        <mxCell id="v3j3ujz7cPLlm9doWBM3-36" value="High Level Sip Layer" style="text;html=1;align=center;verticalAlign=middle;whiteSpace=wrap;rounded=0;" vertex="1" parent="1">
          <mxGeometry x="410" y="380" width="100" height="30" as="geometry" />
        </mxCell>
        <mxCell id="v3j3ujz7cPLlm9doWBM3-37" value="" style="shape=curlyBracket;whiteSpace=wrap;html=1;rounded=1;flipH=1;labelPosition=right;verticalLabelPosition=middle;align=left;verticalAlign=middle;" vertex="1" parent="1">
          <mxGeometry x="390" y="470" width="20" height="80" as="geometry" />
        </mxCell>
        <mxCell id="v3j3ujz7cPLlm9doWBM3-38" value="App logic Layer" style="text;html=1;align=center;verticalAlign=middle;whiteSpace=wrap;rounded=0;" vertex="1" parent="1">
          <mxGeometry x="410" y="495" width="100" height="30" as="geometry" />
        </mxCell>
        <mxCell id="v3j3ujz7cPLlm9doWBM3-44" value="" style="endArrow=none;html=1;rounded=0;strokeWidth=3;" edge="1" parent="1">
          <mxGeometry width="50" height="50" relative="1" as="geometry">
            <mxPoint x="680" y="820" as="sourcePoint" />
            <mxPoint x="680" y="-560" as="targetPoint" />
          </mxGeometry>
        </mxCell>
        <mxCell id="v3j3ujz7cPLlm9doWBM3-45" value="&lt;h1 style=&quot;margin-top: 0px;&quot;&gt;Objects Overview&lt;/h1&gt;" style="text;html=1;whiteSpace=wrap;overflow=hidden;rounded=0;" vertex="1" parent="1">
          <mxGeometry x="710" y="-210" width="260" height="120" as="geometry" />
        </mxCell>
      </root>
    </mxGraphModel>
  </diagram>
  <diagram name="Event loop" id="DYS4X43bdyaeCCeUCE0n">
    <mxGraphModel dx="1248" dy="2730" grid="1" gridSize="10" guides="1" tooltips="1" connect="1" arrows="1" fold="1" page="1" pageScale="1" pageWidth="850" pageHeight="1100" math="0" shadow="0">
      <root>
        <mxCell id="0" />
        <mxCell id="1" parent="0" />
        <mxCell id="8oikypdOr_yC_xlXZbeG-5" value="" style="endArrow=classic;html=1;rounded=0;curved=1;" parent="1" edge="1">
          <mxGeometry width="50" height="50" relative="1" as="geometry">
            <mxPoint x="150" y="-70" as="sourcePoint" />
            <mxPoint x="170" y="30" as="targetPoint" />
            <Array as="points">
              <mxPoint x="170" y="-10" />
              <mxPoint x="210" y="40" />
              <mxPoint x="360" y="50" />
              <mxPoint x="420" y="-10" />
              <mxPoint x="440" y="-100" />
              <mxPoint x="380" y="-180" />
              <mxPoint x="210" y="-170" />
              <mxPoint x="90" y="-110" />
            </Array>
          </mxGeometry>
        </mxCell>
        <mxCell id="8oikypdOr_yC_xlXZbeG-6" value="&lt;font style=&quot;font-size: 26px;&quot;&gt;Event Loop&lt;/font&gt;" style="text;html=1;align=center;verticalAlign=middle;whiteSpace=wrap;rounded=0;" parent="1" vertex="1">
          <mxGeometry x="170" y="-110" width="200" height="60" as="geometry" />
        </mxCell>
        <mxCell id="8oikypdOr_yC_xlXZbeG-7" value="&lt;h1 style=&quot;margin-top: 0px;&quot;&gt;Main axis of the project is Event Loop.&lt;/h1&gt;&lt;p&gt;&lt;br&gt;&lt;/p&gt;" style="text;html=1;whiteSpace=wrap;overflow=hidden;rounded=0;" parent="1" vertex="1">
          <mxGeometry x="40" y="-310" width="180" height="100" as="geometry" />
        </mxCell>
        <mxCell id="8oikypdOr_yC_xlXZbeG-9" value="TimerEvent" style="swimlane;fontStyle=0;childLayout=stackLayout;horizontal=1;startSize=30;horizontalStack=0;resizeParent=1;resizeParentMax=0;resizeLast=0;collapsible=1;marginBottom=0;whiteSpace=wrap;html=1;" parent="1" vertex="1">
          <mxGeometry x="100" y="80" width="140" height="110" as="geometry" />
        </mxCell>
        <mxCell id="8oikypdOr_yC_xlXZbeG-10" value="Allow interacting with Ua from the same machine" style="text;strokeColor=none;fillColor=none;align=left;verticalAlign=middle;spacingLeft=4;spacingRight=4;overflow=hidden;points=[[0,0.5],[1,0.5]];portConstraint=eastwest;rotatable=0;whiteSpace=wrap;html=1;" parent="8oikypdOr_yC_xlXZbeG-9" vertex="1">
          <mxGeometry y="30" width="140" height="50" as="geometry" />
        </mxCell>
        <mxCell id="8oikypdOr_yC_xlXZbeG-11" value="Uses linux timerfd" style="text;strokeColor=none;fillColor=none;align=left;verticalAlign=middle;spacingLeft=4;spacingRight=4;overflow=hidden;points=[[0,0.5],[1,0.5]];portConstraint=eastwest;rotatable=0;whiteSpace=wrap;html=1;" parent="8oikypdOr_yC_xlXZbeG-9" vertex="1">
          <mxGeometry y="80" width="140" height="30" as="geometry" />
        </mxCell>
        <mxCell id="8oikypdOr_yC_xlXZbeG-17" value="SocketEvent" style="swimlane;fontStyle=0;childLayout=stackLayout;horizontal=1;startSize=30;horizontalStack=0;resizeParent=1;resizeParentMax=0;resizeLast=0;collapsible=1;marginBottom=0;whiteSpace=wrap;html=1;" parent="1" vertex="1">
          <mxGeometry x="400" y="80" width="140" height="110" as="geometry" />
        </mxCell>
        <mxCell id="8oikypdOr_yC_xlXZbeG-18" value="Allow interacting with Ua from another machine" style="text;strokeColor=none;fillColor=none;align=left;verticalAlign=middle;spacingLeft=4;spacingRight=4;overflow=hidden;points=[[0,0.5],[1,0.5]];portConstraint=eastwest;rotatable=0;whiteSpace=wrap;html=1;" parent="8oikypdOr_yC_xlXZbeG-17" vertex="1">
          <mxGeometry y="30" width="140" height="50" as="geometry" />
        </mxCell>
        <mxCell id="8oikypdOr_yC_xlXZbeG-19" value="Uses bsd sockets" style="text;strokeColor=none;fillColor=none;align=left;verticalAlign=middle;spacingLeft=4;spacingRight=4;overflow=hidden;points=[[0,0.5],[1,0.5]];portConstraint=eastwest;rotatable=0;whiteSpace=wrap;html=1;" parent="8oikypdOr_yC_xlXZbeG-17" vertex="1">
          <mxGeometry y="80" width="140" height="30" as="geometry" />
        </mxCell>
        <mxCell id="8oikypdOr_yC_xlXZbeG-22" value="" style="endArrow=none;html=1;rounded=0;" parent="1" edge="1">
          <mxGeometry width="50" height="50" relative="1" as="geometry">
            <mxPoint x="30" y="220" as="sourcePoint" />
            <mxPoint x="590" y="220" as="targetPoint" />
          </mxGeometry>
        </mxCell>
        <mxCell id="awC3xR5aF0oG_H9M2n87-1" value="Receive data from another machine" style="text;html=1;align=center;verticalAlign=middle;whiteSpace=wrap;rounded=0;fontSize=17;" parent="1" vertex="1">
          <mxGeometry x="30" y="230" width="140" height="30" as="geometry" />
        </mxCell>
        <mxCell id="awC3xR5aF0oG_H9M2n87-9" value="" style="edgeStyle=orthogonalEdgeStyle;rounded=0;orthogonalLoop=1;jettySize=auto;html=1;" parent="1" source="awC3xR5aF0oG_H9M2n87-4" target="awC3xR5aF0oG_H9M2n87-5" edge="1">
          <mxGeometry relative="1" as="geometry" />
        </mxCell>
        <mxCell id="awC3xR5aF0oG_H9M2n87-4" value="Other machine wants to send us data" style="ellipse;whiteSpace=wrap;html=1;" parent="1" vertex="1">
          <mxGeometry x="220" y="270" width="120" height="80" as="geometry" />
        </mxCell>
        <mxCell id="awC3xR5aF0oG_H9M2n87-10" value="" style="edgeStyle=orthogonalEdgeStyle;rounded=0;orthogonalLoop=1;jettySize=auto;html=1;" parent="1" source="awC3xR5aF0oG_H9M2n87-5" target="awC3xR5aF0oG_H9M2n87-7" edge="1">
          <mxGeometry relative="1" as="geometry" />
        </mxCell>
        <mxCell id="awC3xR5aF0oG_H9M2n87-5" value="Event loop wakes up" style="rounded=1;whiteSpace=wrap;html=1;" parent="1" vertex="1">
          <mxGeometry x="220" y="410" width="120" height="60" as="geometry" />
        </mxCell>
        <mxCell id="awC3xR5aF0oG_H9M2n87-12" value="" style="edgeStyle=orthogonalEdgeStyle;rounded=0;orthogonalLoop=1;jettySize=auto;html=1;" parent="1" source="awC3xR5aF0oG_H9M2n87-7" edge="1">
          <mxGeometry relative="1" as="geometry">
            <mxPoint x="450" y="640" as="targetPoint" />
          </mxGeometry>
        </mxCell>
        <mxCell id="awC3xR5aF0oG_H9M2n87-7" value="What is event type?" style="rhombus;whiteSpace=wrap;html=1;" parent="1" vertex="1">
          <mxGeometry x="215" y="520" width="130" height="100" as="geometry" />
        </mxCell>
        <mxCell id="awC3xR5aF0oG_H9M2n87-15" value="" style="edgeStyle=orthogonalEdgeStyle;rounded=0;orthogonalLoop=1;jettySize=auto;html=1;" parent="1" source="awC3xR5aF0oG_H9M2n87-8" target="awC3xR5aF0oG_H9M2n87-14" edge="1">
          <mxGeometry relative="1" as="geometry" />
        </mxCell>
        <mxCell id="awC3xR5aF0oG_H9M2n87-8" value="Accept connection&lt;div&gt;and create new socket event for connection&lt;/div&gt;" style="rounded=1;whiteSpace=wrap;html=1;" parent="1" vertex="1">
          <mxGeometry x="390" y="780" width="120" height="60" as="geometry" />
        </mxCell>
        <mxCell id="awC3xR5aF0oG_H9M2n87-13" value="SocketEvent" style="text;html=1;align=center;verticalAlign=middle;whiteSpace=wrap;rounded=0;" parent="1" vertex="1">
          <mxGeometry x="360" y="535" width="60" height="30" as="geometry" />
        </mxCell>
        <mxCell id="awC3xR5aF0oG_H9M2n87-18" value="" style="edgeStyle=orthogonalEdgeStyle;rounded=0;orthogonalLoop=1;jettySize=auto;html=1;" parent="1" source="awC3xR5aF0oG_H9M2n87-14" target="awC3xR5aF0oG_H9M2n87-17" edge="1">
          <mxGeometry relative="1" as="geometry" />
        </mxCell>
        <mxCell id="awC3xR5aF0oG_H9M2n87-14" value="Create timeout timer&lt;div&gt;event for connection&lt;/div&gt;" style="rounded=1;whiteSpace=wrap;html=1;" parent="1" vertex="1">
          <mxGeometry x="390" y="920" width="120" height="60" as="geometry" />
        </mxCell>
        <mxCell id="awC3xR5aF0oG_H9M2n87-17" value="Wait for data from another machine" style="ellipse;whiteSpace=wrap;html=1;" parent="1" vertex="1">
          <mxGeometry x="390" y="1060" width="120" height="80" as="geometry" />
        </mxCell>
        <mxCell id="awC3xR5aF0oG_H9M2n87-19" value="" style="edgeStyle=orthogonalEdgeStyle;rounded=0;orthogonalLoop=1;jettySize=auto;html=1;" parent="1" source="awC3xR5aF0oG_H9M2n87-20" target="awC3xR5aF0oG_H9M2n87-22" edge="1">
          <mxGeometry relative="1" as="geometry" />
        </mxCell>
        <mxCell id="awC3xR5aF0oG_H9M2n87-20" value="Other machine send us data" style="ellipse;whiteSpace=wrap;html=1;" parent="1" vertex="1">
          <mxGeometry x="235" y="1210" width="120" height="80" as="geometry" />
        </mxCell>
        <mxCell id="awC3xR5aF0oG_H9M2n87-21" value="" style="edgeStyle=orthogonalEdgeStyle;rounded=0;orthogonalLoop=1;jettySize=auto;html=1;" parent="1" source="awC3xR5aF0oG_H9M2n87-22" target="awC3xR5aF0oG_H9M2n87-24" edge="1">
          <mxGeometry relative="1" as="geometry" />
        </mxCell>
        <mxCell id="awC3xR5aF0oG_H9M2n87-22" value="Event loop wakes up" style="rounded=1;whiteSpace=wrap;html=1;" parent="1" vertex="1">
          <mxGeometry x="235" y="1350" width="120" height="60" as="geometry" />
        </mxCell>
        <mxCell id="awC3xR5aF0oG_H9M2n87-23" value="" style="edgeStyle=orthogonalEdgeStyle;rounded=0;orthogonalLoop=1;jettySize=auto;html=1;" parent="1" source="awC3xR5aF0oG_H9M2n87-24" target="awC3xR5aF0oG_H9M2n87-26" edge="1">
          <mxGeometry relative="1" as="geometry">
            <mxPoint x="505" y="1510" as="targetPoint" />
          </mxGeometry>
        </mxCell>
        <mxCell id="awC3xR5aF0oG_H9M2n87-24" value="What is event type?" style="rhombus;whiteSpace=wrap;html=1;" parent="1" vertex="1">
          <mxGeometry x="230" y="1460" width="130" height="100" as="geometry" />
        </mxCell>
        <mxCell id="awC3xR5aF0oG_H9M2n87-25" value="" style="edgeStyle=orthogonalEdgeStyle;rounded=0;orthogonalLoop=1;jettySize=auto;html=1;" parent="1" source="awC3xR5aF0oG_H9M2n87-26" target="awC3xR5aF0oG_H9M2n87-29" edge="1">
          <mxGeometry relative="1" as="geometry" />
        </mxCell>
        <mxCell id="awC3xR5aF0oG_H9M2n87-26" value="Accept connection&lt;div&gt;and create new socket event for connection&lt;/div&gt;" style="rounded=1;whiteSpace=wrap;html=1;" parent="1" vertex="1">
          <mxGeometry x="405" y="1580" width="120" height="60" as="geometry" />
        </mxCell>
        <mxCell id="awC3xR5aF0oG_H9M2n87-27" value="SocketEvent" style="text;html=1;align=center;verticalAlign=middle;whiteSpace=wrap;rounded=0;" parent="1" vertex="1">
          <mxGeometry x="375" y="1475" width="60" height="30" as="geometry" />
        </mxCell>
        <mxCell id="awC3xR5aF0oG_H9M2n87-28" value="" style="edgeStyle=orthogonalEdgeStyle;rounded=0;orthogonalLoop=1;jettySize=auto;html=1;" parent="1" source="awC3xR5aF0oG_H9M2n87-29" target="awC3xR5aF0oG_H9M2n87-30" edge="1">
          <mxGeometry relative="1" as="geometry" />
        </mxCell>
        <mxCell id="awC3xR5aF0oG_H9M2n87-29" value="Create timeout timer&lt;div&gt;event for connection&lt;/div&gt;" style="rounded=1;whiteSpace=wrap;html=1;" parent="1" vertex="1">
          <mxGeometry x="405" y="1720" width="120" height="60" as="geometry" />
        </mxCell>
        <mxCell id="awC3xR5aF0oG_H9M2n87-30" value="Wait for data from another machine" style="ellipse;whiteSpace=wrap;html=1;" parent="1" vertex="1">
          <mxGeometry x="405" y="1860" width="120" height="80" as="geometry" />
        </mxCell>
        <mxCell id="awC3xR5aF0oG_H9M2n87-40" value="" style="edgeStyle=orthogonalEdgeStyle;rounded=0;orthogonalLoop=1;jettySize=auto;html=1;" parent="1" edge="1">
          <mxGeometry relative="1" as="geometry">
            <mxPoint x="449.66" y="700" as="sourcePoint" />
            <mxPoint x="449.66" y="780" as="targetPoint" />
          </mxGeometry>
        </mxCell>
        <mxCell id="awC3xR5aF0oG_H9M2n87-49" value="" style="edgeStyle=orthogonalEdgeStyle;rounded=0;orthogonalLoop=1;jettySize=auto;html=1;" parent="1" source="awC3xR5aF0oG_H9M2n87-41" target="awC3xR5aF0oG_H9M2n87-44" edge="1">
          <mxGeometry relative="1" as="geometry">
            <mxPoint x="255" y="685" as="targetPoint" />
          </mxGeometry>
        </mxCell>
        <mxCell id="awC3xR5aF0oG_H9M2n87-41" value="What is socket transport?" style="rhombus;whiteSpace=wrap;html=1;" parent="1" vertex="1">
          <mxGeometry x="392.5" y="640" width="115" height="90" as="geometry" />
        </mxCell>
        <mxCell id="awC3xR5aF0oG_H9M2n87-44" value="Return transp not supported error." style="ellipse;whiteSpace=wrap;html=1;" parent="1" vertex="1">
          <mxGeometry x="240" y="770" width="120" height="80" as="geometry" />
        </mxCell>
        <mxCell id="awC3xR5aF0oG_H9M2n87-45" value="UDP" style="text;html=1;align=center;verticalAlign=middle;whiteSpace=wrap;rounded=0;" parent="1" vertex="1">
          <mxGeometry x="450" y="720" width="60" height="30" as="geometry" />
        </mxCell>
        <mxCell id="awC3xR5aF0oG_H9M2n87-50" value="We need some kind of transport layer." style="ellipse;shape=cloud;whiteSpace=wrap;html=1;" parent="1" vertex="1">
          <mxGeometry x="510" y="610" width="130" height="100" as="geometry" />
        </mxCell>
        <mxCell id="awC3xR5aF0oG_H9M2n87-52" value="" style="edgeStyle=orthogonalEdgeStyle;rounded=0;orthogonalLoop=1;jettySize=auto;html=1;" parent="1" edge="1">
          <mxGeometry relative="1" as="geometry">
            <mxPoint x="215.00275862068975" y="570" as="sourcePoint" />
            <mxPoint x="110.00275862068975" y="640" as="targetPoint" />
          </mxGeometry>
        </mxCell>
        <mxCell id="awC3xR5aF0oG_H9M2n87-53" value="TimerEvent" style="text;html=1;align=center;verticalAlign=middle;whiteSpace=wrap;rounded=0;flipH=1;" parent="1" vertex="1">
          <mxGeometry x="124.51999999999998" y="535" width="60" height="30" as="geometry" />
        </mxCell>
        <mxCell id="awC3xR5aF0oG_H9M2n87-54" value="Process timer." style="ellipse;whiteSpace=wrap;html=1;" parent="1" vertex="1">
          <mxGeometry x="50" y="640" width="120" height="80" as="geometry" />
        </mxCell>
        <mxCell id="qlrTHOaV5FmHmRxbxTNO-2" value="Idle" style="whiteSpace=wrap;html=1;aspect=fixed;fillStyle=auto;rounded=1;" vertex="1" parent="1">
          <mxGeometry x="1000" y="250" width="90" height="90" as="geometry" />
        </mxCell>
        <mxCell id="qlrTHOaV5FmHmRxbxTNO-3" value="&lt;h1 style=&quot;margin-top: 0px;&quot;&gt;Event loop state machine&lt;/h1&gt;" style="text;html=1;whiteSpace=wrap;overflow=hidden;rounded=0;" vertex="1" parent="1">
          <mxGeometry x="860" y="75" width="180" height="120" as="geometry" />
        </mxCell>
        <mxCell id="qlrTHOaV5FmHmRxbxTNO-4" value="" style="ellipse;html=1;shape=startState;fillColor=#000000;strokeColor=#ff0000;" vertex="1" parent="1">
          <mxGeometry x="1030" y="160" width="30" height="30" as="geometry" />
        </mxCell>
        <mxCell id="qlrTHOaV5FmHmRxbxTNO-5" value="" style="edgeStyle=orthogonalEdgeStyle;html=1;verticalAlign=bottom;endArrow=open;endSize=8;strokeColor=#ff0000;rounded=0;" edge="1" source="qlrTHOaV5FmHmRxbxTNO-4" parent="1">
          <mxGeometry relative="1" as="geometry">
            <mxPoint x="1045" y="250" as="targetPoint" />
          </mxGeometry>
        </mxCell>
        <mxCell id="qlrTHOaV5FmHmRxbxTNO-6" value="Receiving&amp;nbsp;&lt;div&gt;data&lt;/div&gt;" style="whiteSpace=wrap;html=1;aspect=fixed;fillStyle=auto;rounded=1;" vertex="1" parent="1">
          <mxGeometry x="800" y="395" width="90" height="90" as="geometry" />
        </mxCell>
        <mxCell id="qlrTHOaV5FmHmRxbxTNO-7" value="Sending data" style="whiteSpace=wrap;html=1;aspect=fixed;fillStyle=auto;rounded=1;" vertex="1" parent="1">
          <mxGeometry x="1200" y="395" width="90" height="90" as="geometry" />
        </mxCell>
        <mxCell id="qlrTHOaV5FmHmRxbxTNO-8" value="" style="endArrow=classic;html=1;rounded=0;entryX=0.5;entryY=0;entryDx=0;entryDy=0;" edge="1" parent="1" target="qlrTHOaV5FmHmRxbxTNO-6">
          <mxGeometry width="50" height="50" relative="1" as="geometry">
            <mxPoint x="1000" y="290" as="sourcePoint" />
            <mxPoint x="1050" y="240" as="targetPoint" />
            <Array as="points">
              <mxPoint x="846" y="290" />
            </Array>
          </mxGeometry>
        </mxCell>
        <mxCell id="qlrTHOaV5FmHmRxbxTNO-10" value="fd.events &amp;amp; POLLIN" style="text;html=1;align=center;verticalAlign=middle;whiteSpace=wrap;rounded=0;" vertex="1" parent="1">
          <mxGeometry x="850" y="260" width="130" height="30" as="geometry" />
        </mxCell>
        <mxCell id="qlrTHOaV5FmHmRxbxTNO-11" value="fd.events &amp;amp; POLLOUT" style="text;html=1;align=center;verticalAlign=middle;whiteSpace=wrap;rounded=0;" vertex="1" parent="1">
          <mxGeometry x="1110" y="260" width="130" height="30" as="geometry" />
        </mxCell>
        <mxCell id="qlrTHOaV5FmHmRxbxTNO-12" value="" style="endArrow=classic;html=1;rounded=0;exitX=1;exitY=0.5;exitDx=0;exitDy=0;entryX=0.5;entryY=1;entryDx=0;entryDy=0;" edge="1" parent="1" source="qlrTHOaV5FmHmRxbxTNO-6" target="qlrTHOaV5FmHmRxbxTNO-2">
          <mxGeometry width="50" height="50" relative="1" as="geometry">
            <mxPoint x="790" y="500" as="sourcePoint" />
            <mxPoint x="840" y="450" as="targetPoint" />
            <Array as="points">
              <mxPoint x="1045" y="440" />
            </Array>
          </mxGeometry>
        </mxCell>
        <mxCell id="qlrTHOaV5FmHmRxbxTNO-13" value="" style="endArrow=classic;html=1;rounded=0;entryX=0.5;entryY=0;entryDx=0;entryDy=0;" edge="1" parent="1">
          <mxGeometry width="50" height="50" relative="1" as="geometry">
            <mxPoint x="1200" y="445" as="sourcePoint" />
            <mxPoint x="1045" y="340" as="targetPoint" />
            <Array as="points">
              <mxPoint x="1046" y="445" />
            </Array>
          </mxGeometry>
        </mxCell>
        <mxCell id="qlrTHOaV5FmHmRxbxTNO-14" value="" style="endArrow=classic;html=1;rounded=0;exitX=1;exitY=0.5;exitDx=0;exitDy=0;entryX=0.5;entryY=1;entryDx=0;entryDy=0;" edge="1" parent="1">
          <mxGeometry width="50" height="50" relative="1" as="geometry">
            <mxPoint x="1090" y="290" as="sourcePoint" />
            <mxPoint x="1245" y="390" as="targetPoint" />
            <Array as="points">
              <mxPoint x="1245" y="290" />
            </Array>
          </mxGeometry>
        </mxCell>
        <mxCell id="qlrTHOaV5FmHmRxbxTNO-18" value="event_loop_insert(struct pollfd, recvh, sendh, data)&lt;span style=&quot;color: rgba(0, 0, 0, 0); font-family: monospace; font-size: 0px; text-align: start; text-wrap-mode: nowrap;&quot;&gt;%3CmxGraphModel%3E%3Croot%3E%3CmxCell%20id%3D%220%22%2F%3E%3CmxCell%20id%3D%221%22%20parent%3D%220%22%2F%3E%3CmxCell%20id%3D%222%22%20value%3D%22%22%20style%3D%22endArrow%3Dclassic%3Bhtml%3D1%3Brounded%3D0%3BentryX%3D0.5%3BentryY%3D0%3BentryDx%3D0%3BentryDy%3D0%3B%22%20edge%3D%221%22%20parent%3D%221%22%3E%3CmxGeometry%20width%3D%2250%22%20height%3D%2250%22%20relative%3D%221%22%20as%3D%22geometry%22%3E%3CmxPoint%20x%3D%221000%22%20y%3D%22290%22%20as%3D%22sourcePoint%22%2F%3E%3CmxPoint%20x%3D%22845%22%20y%3D%22395%22%20as%3D%22targetPoint%22%2F%3E%3CArray%20as%3D%22points%22%3E%3CmxPoint%20x%3D%22846%22%20y%3D%22290%22%2F%3E%3C%2FArray%3E%3C%2FmxGeometry%3E%3C%2FmxCell%3E%3CmxCell%20id%3D%223%22%20value%3D%22%22%20style%3D%22endArrow%3Dclassic%3Bhtml%3D1%3Brounded%3D0%3BexitX%3D1%3BexitY%3D0.5%3BexitDx%3D0%3BexitDy%3D0%3BentryX%3D0.5%3BentryY%3D1%3BentryDx%3D0%3BentryDy%3D0%3B%22%20edge%3D%221%22%20parent%3D%221%22%3E%3CmxGeometry%20width%3D%2250%22%20height%3D%2250%22%20relative%3D%221%22%20as%3D%22geometry%22%3E%3CmxPoint%20x%3D%22890%22%20y%3D%22440%22%20as%3D%22sourcePoint%22%2F%3E%3CmxPoint%20x%3D%221045%22%20y%3D%22340%22%20as%3D%22targetPoint%22%2F%3E%3CArray%20as%3D%22points%22%3E%3CmxPoint%20x%3D%221045%22%20y%3D%22440%22%2F%3E%3C%2FArray%3E%3C%2FmxGeometry%3E%3C%2FmxCell%3E%3C%2Froot%3E%3C%2FmxGraphModel%3E&lt;/span&gt;" style="text;html=1;align=center;verticalAlign=middle;whiteSpace=wrap;rounded=0;" vertex="1" parent="1">
          <mxGeometry x="1310" y="250" width="130" height="50" as="geometry" />
        </mxCell>
        <mxCell id="qlrTHOaV5FmHmRxbxTNO-19" value="udp_event_loop_send_handler(struct pollfd, data)&lt;span style=&quot;color: rgba(0, 0, 0, 0); font-family: monospace; font-size: 0px; text-align: start; text-wrap-mode: nowrap;&quot;&gt;%3CmxGraphModel%3E%3Croot%3E%3CmxCell%20id%3D%220%22%2F%3E%3CmxCell%20id%3D%221%22%20parent%3D%220%22%2F%3E%3CmxCell%20id%3D%222%22%20value%3D%22%22%20style%3D%22endArrow%3Dclassic%3Bhtml%3D1%3Brounded%3D0%3BentryX%3D0.5%3BentryY%3D0%3BentryDx%3D0%3BentryDy%3D0%3B%22%20edge%3D%221%22%20parent%3D%221%22%3E%3CmxGeometry%20width%3D%2250%22%20height%3D%2250%22%20relative%3D%221%22%20as%3D%22geometry%22%3E%3CmxPoint%20x%3D%221000%22%20y%3D%22290%22%20as%3D%22sourcePoint%22%2F%3E%3CmxPoint%20x%3D%22845%22%20y%3D%22395%22%20as%3D%22targetPoint%22%2F%3E%3CArray%20as%3D%22points%22%3E%3CmxPoint%20x%3D%22846%22%20y%3D%22290%22%2F%3E%3C%2FArray%3E%3C%2FmxGeometry%3E%3C%2FmxCell%3E%3CmxCell%20id%3D%223%22%20value%3D%22%22%20style%3D%22endArrow%3Dclassic%3Bhtml%3D1%3Brounded%3D0%3BexitX%3D1%3BexitY%3D0.5%3BexitDx%3D0%3BexitDy%3D0%3BentryX%3D0.5%3BentryY%3D1%3BentryDx%3D0%3BentryDy%3D0%3B%22%20edge%3D%221%22%20parent%3D%221%22%3E%3CmxGeometry%20width%3D%2250%22%20height%3D%2250%22%20relative%3D%221%22%20as%3D%22geometry%22%3E%3CmxPoint%20x%3D%22890%22%20y%3D%22440%22%20as%3D%22sourcePoint%22%2F%3E%3CmxPoint%20x%3D%221045%22%20y%3D%22340%22%20as%3D%22targetPoint%22%2F%3E%3CArray%20as%3D%22points%22%3E%3CmxPoint%20x%3D%221045%22%20y%3D%22440%22%2F%3E%3C%2FArray%3E%3C%2FmxGeometry%3E%3C%2FmxCell%3E%3C%2Froot%3E%3C%2FmxGraphModel%3E&lt;/span&gt;" style="text;html=1;align=center;verticalAlign=middle;whiteSpace=wrap;rounded=0;" vertex="1" parent="1">
          <mxGeometry x="1350" y="340" width="130" height="50" as="geometry" />
        </mxCell>
        <mxCell id="qlrTHOaV5FmHmRxbxTNO-20" value="udp_event_loop_recv_handler(struct pollfd, data)&lt;span style=&quot;color: rgba(0, 0, 0, 0); font-family: monospace; font-size: 0px; text-align: start; text-wrap-mode: nowrap;&quot;&gt;%3CmxGraphModel%3E%3Croot%3E%3CmxCell%20id%3D%220%22%2F%3E%3CmxCell%20id%3D%221%22%20parent%3D%220%22%2F%3E%3CmxCell%20id%3D%222%22%20value%3D%22%22%20style%3D%22endArrow%3Dclassic%3Bhtml%3D1%3Brounded%3D0%3BentryX%3D0.5%3BentryY%3D0%3BentryDx%3D0%3BentryDy%3D0%3B%22%20edge%3D%221%22%20parent%3D%221%22%3E%3CmxGeometry%20width%3D%2250%22%20height%3D%2250%22%20relative%3D%221%22%20as%3D%22geometry%22%3E%3CmxPoint%20x%3D%221000%22%20y%3D%22290%22%20as%3D%22sourcePoint%22%2F%3E%3CmxPoint%20x%3D%22845%22%20y%3D%22395%22%20as%3D%22targetPoint%22%2F%3E%3CArray%20as%3D%22points%22%3E%3CmxPoint%20x%3D%22846%22%20y%3D%22290%22%2F%3E%3C%2FArray%3E%3C%2FmxGeometry%3E%3C%2FmxCell%3E%3CmxCell%20id%3D%223%22%20value%3D%22%22%20style%3D%22endArrow%3Dclassic%3Bhtml%3D1%3Brounded%3D0%3BexitX%3D1%3BexitY%3D0.5%3BexitDx%3D0%3BexitDy%3D0%3BentryX%3D0.5%3BentryY%3D1%3BentryDx%3D0%3BentryDy%3D0%3B%22%20edge%3D%221%22%20parent%3D%221%22%3E%3CmxGeometry%20width%3D%2250%22%20height%3D%2250%22%20relative%3D%221%22%20as%3D%22geometry%22%3E%3CmxPoint%20x%3D%22890%22%20y%3D%22440%22%20as%3D%22sourcePoint%22%2F%3E%3CmxPoint%20x%3D%221045%22%20y%3D%22340%22%20as%3D%22targetPoint%22%2F%3E%3CArray%20as%3D%22points%22%3E%3CmxPoint%20x%3D%221045%22%20y%3D%22440%22%2F%3E%3C%2FArray%3E%3C%2FmxGeometry%3E%3C%2FmxCell%3E%3C%2Froot%3E%3C%2FmxGraphModel%3E&lt;/span&gt;" style="text;html=1;align=center;verticalAlign=middle;whiteSpace=wrap;rounded=0;" vertex="1" parent="1">
          <mxGeometry x="1360" y="430" width="130" height="50" as="geometry" />
        </mxCell>
      </root>
    </mxGraphModel>
  </diagram>
</mxfile>
